<?xml version="1.0" standalone="no"?>
<!DOCTYPE svg PUBLIC "-//W3C//DTD SVG 20010904//EN"
 "http://www.w3.org/TR/2001/REC-SVG-20010904/DTD/svg10.dtd">
<svg version="1.0" xmlns="http://www.w3.org/2000/svg"
 width="232.000000pt" height="232.000000pt" viewBox="0 0 232.000000 232.000000"
 preserveAspectRatio="xMidYMid meet">
<metadata>
Created by potrace 1.14, written by Peter Selinger 2001-2017
</metadata>
<g transform="translate(0.000000,232.000000) scale(0.100000,-0.100000)"
fill="#000000" stroke="none">
<path d="M616 2260 c-25 -34 -48 -71 -52 -83 -3 -12 -11 -28 -17 -36 -6 -7
-12 -19 -13 -26 -1 -7 -9 -28 -17 -46 -33 -73 -51 -149 -62 -259 -3 -25 -7
-63 -10 -85 -2 -22 -7 -71 -11 -110 -3 -38 -7 -82 -9 -96 -2 -15 -19 -49 -39
-77 -43 -59 -86 -177 -110 -302 -21 -113 -39 -186 -59 -250 -39 -122 -27 -283
28 -375 26 -44 59 -81 171 -196 l75 -75 -73 -1 c-40 0 -86 -3 -103 -7 -63 -12
-152 -37 -192 -54 l-43 -17 0 -82 0 -83 1080 0 1080 0 0 69 c0 68 -1 72 -110
285 -112 221 -142 299 -155 396 -3 30 -10 71 -15 90 -5 19 -11 55 -14 80 -7
61 -23 160 -30 190 -3 14 -8 36 -10 50 -9 46 -15 73 -27 109 -15 47 -91 205
-101 209 -4 2 -8 10 -8 18 0 8 -5 14 -12 14 -30 0 6 13 46 16 24 2 73 13 108
24 71 24 246 104 295 135 l33 20 0 213 c0 116 -1 212 -2 212 -13 0 -134 -52
-223 -95 -108 -52 -307 -167 -333 -191 -6 -7 -21 -16 -32 -19 -11 -3 -20 -11
-20 -16 0 -5 -5 -9 -10 -9 -10 0 -67 -36 -80 -50 -22 -24 -68 -47 -80 -40 -8
4 -58 20 -110 34 -166 44 -380 50 -489 13 l-42 -15 5 41 c4 23 8 53 10 67 33
205 35 395 5 451 -8 16 -22 19 -94 19 l-85 0 -44 -60z"/>
<path d="M403 1763 c-18 -6 -16 -40 1 -46 8 -3 20 1 27 9 10 12 9 18 -2 28 -8
8 -20 12 -26 9z"/>
</g>
</svg>
